{
  "accessors": [
    {
      "bufferView": 1,
      "componentType": 5126,
      "count": 3824,
      "max": [
        2.328648090362549,
        3.0235519409179688,
        6.010096073150635
      ],
      "min": [
        -2.3286490440368652,
        -2.9791579246520996,
        0.004929000046104193
      ],
      "type": "VEC3"
    },
    {
      "bufferView": 1,
      "byteOffset": 45888,
      "componentType": 5126,
      "count": 3824,
      "max": [
        0.999971866607666,
        0.9983687996864319,
        0.9984582662582397
      ],
      "min": [
        -0.999971866607666,
        -0.998369038105011,
        -0.9984582662582397
      ],
      "type": "VEC3"
    },
    {
      "bufferView": 0,
      "componentType": 5125,
      "count": 20496,
      "type": "SCALAR"
    },
    {
      "bufferView": 1,
      "byteOffset": 91776,
      "componentType": 5126,
      "count": 9348,
      "max": [
        2.3036680221557617,
        0.10337000340223312,
        4.957308769226074
      ],
      "min": [
        -2.316723108291626,
        -3.0393340587615967,
        -1.1018860340118408
      ],
      "type": "VEC3"
    },
    {
      "bufferView": 1,
      "byteOffset": 203952,
      "componentType": 5126,
      "count": 9348,
      "max": [
        1.0,
        1.0,
        1.0
      ],
      "min": [
        -1.0,
        -1.0,
        -1.0
      ],
      "type": "VEC3"
    },
    {
      "bufferView": 0,
      "byteOffset": 81984,
      "componentType": 5125,
      "count": 55836,
      "type": "SCALAR"
    },
    {
      "bufferView": 1,
      "byteOffset": 316128,
      "componentType": 5126,
      "count": 1394,
      "max": [
        2.3283209800720215,
        3.0237059593200684,
        6.010244846343994
      ],
      "min": [
        -2.3283209800720215,
        -2.9793028831481934,
        0.004778999835252762
      ],
      "type": "VEC3"
    },
    {
      "bufferView": 1,
      "byteOffset": 332856,
      "componentType": 5126,
      "count": 1394,
      "max": [
        0.9998844861984253,
        1.0,
        1.0
      ],
      "min": [
        -0.9998844861984253,
        -0.9999995231628418,
        -1.0
      ],
      "type": "VEC3"
    },
    {
      "bufferView": 0,
      "byteOffset": 305328,
      "componentType": 5125,
      "count": 6096,
      "type": "SCALAR"
    }
  ],
  "asset": {
    "extras": {
      "author": "Joel (https://sketchfab.com/ohsnapitsjoel)",
      "license": "CC-BY-4.0 (http://creativecommons.org/licenses/by/4.0/)",
      "source": "https://sketchfab.com/3d-models/loomis-head-d0b3f4aa633a44d8bda8cfe2f779f1f8",
      "title": "Loomis Head"
    },
    "generator": "Sketchfab-12.68.0",
    "version": "2.0"
  },
  "bufferViews": [
    {
      "buffer": 0,
      "byteLength": 329712,
      "name": "floatBufferViews",
      "target": 34963
    },
    {
      "buffer": 0,
      "byteLength": 349584,
      "byteOffset": 329712,
      "byteStride": 12,
      "name": "floatBufferViews",
      "target": 34962
    }
  ],
  "buffers": [
    {
      "byteLength": 679296,
      "uri": "scene.bin"
    }
  ],
  "materials": [
    {
      "doubleSided": true,
      "name": "Material.001",
      "pbrMetallicRoughness": {
        "baseColorFactor": [
          0.5127435803070499,
          0.44451534049093355,
          0.40680578176308374,
          1.0
        ],
        "metallicFactor": 0.0,
        "roughnessFactor": 0.26391006097560976
      }
    },
    {
      "doubleSided": true,
      "name": "Material.002",
      "pbrMetallicRoughness": {
        "baseColorFactor": [
          0.0,
          0.0,
          0.0,
          1.0
        ],
        "metallicFactor": 0.0,
        "roughnessFactor": 0.30659298780487804
      }
    }
  ],
  "meshes": [
    {
      "name": "Object_0",
      "primitives": [
        {
          "attributes": {
            "NORMAL": 1,
            "POSITION": 0
          },
          "indices": 2,
          "material": 0,
          "mode": 4
        }
      ]
    },
    {
      "name": "Object_1",
      "primitives": [
        {
          "attributes": {
            "NORMAL": 4,
            "POSITION": 3
          },
          "indices": 5,
          "material": 1,
          "mode": 4
        }
      ]
    },
    {
      "name": "Object_2",
      "primitives": [
        {
          "attributes": {
            "NORMAL": 7,
            "POSITION": 6
          },
          "indices": 8,
          "material": 1,
          "mode": 4
        }
      ]
    }
  ],
  "nodes": [
    {
      "children": [
        1
      ],
      "matrix": [
        1.0,
        0.0,
        0.0,
        0.0,
        0.0,
        2.220446049250313e-16,
        -1.0,
        0.0,
        0.0,
        1.0,
        2.220446049250313e-16,
        0.0,
        0.0,
        0.0,
        0.0,
        1.0
      ],
      "name": "Sketchfab_model"
    },
    {
      "children": [
        2,
        3,
        4
      ],
      "name": "Loomis Head.obj.cleaner.materialmerger.gles"
    },
    {
      "mesh": 0,
      "name": "Object_2"
    },
    {
      "mesh": 1,
      "name": "Object_3"
    },
    {
      "mesh": 2,
      "name": "Object_4"
    }
  ],
  "scene": 0,
  "scenes": [
    {
      "name": "Sketchfab_Scene",
      "nodes": [
        0
      ]
    }
  ]
}
